<svg xmlns="http://www.w3.org/2000/svg" viewBox="0 0 132.35 224.65"><defs><style>.cls-1{fill:#9b9b9b;}.cls-2{fill:#c078c4;}.cls-3{fill:#af6db5;}.cls-4{fill:#d087d6;}.cls-5{fill:#ffcf03;}.cls-6{fill:#ffbe06;}.cls-7{fill:#fce06b;}.cls-8{fill:#48d100;}.cls-9{fill:#45ba00;}.cls-10{fill:#65ea18;}.cls-11{fill:#49cadb;}.cls-12{fill:#35b2bc;}.cls-13{fill:#73e2ea;}.cls-14{fill:#ff395a;}.cls-15{fill:#f22552;}.cls-16{fill:#ff5a7e;}</style></defs><title>Asset 1</title><g id="Layer_2" data-name="Layer 2"><g id="OBJECTS"><path class="cls-1" d="M54.16,170.55c-.51-3.7,2.32-8.37,5.89-14.28,6.87-11.36,16.27-26.92,5.86-44.69A121.1,121.1,0,0,1,50,56.86h1.23A119.79,119.79,0,0,0,67,111c10.78,18.4,1.15,34.32-5.88,46-3.31,5.48-6.17,10.21-5.72,13.47Z"/><path class="cls-2" d="M48.64,59.76s1.93.56.82,1.93-4.93,2.71-3,3.77,8.33.68,9.84-1.44c.4-.75-1.58-1.16-3.21-1.8s-.89-2.3,0-2.83C53.5,59.22,48.64,59.76,48.64,59.76Z"/><path class="cls-3" d="M53.14,62.22c-1.65-.65-.89-2.3,0-2.83.31-.17-4.55.37-4.55.37s1.28.37,1.16,1.25c.66,1.58,5.17,1.25,3.26,3.73A5.27,5.27,0,0,1,50.14,66c2.47,0,5.27-.69,6.21-2C56.75,63.27,54.77,62.86,53.14,62.22Z"/><path class="cls-2" d="M71.75,21.83C73.36,41,60.8,59.21,51.06,60S25.87,44.67,24.29,25.81a23.81,23.81,0,1,1,47.46-4Z"/><path class="cls-3" d="M46,.08A23.76,23.76,0,0,0,36.7,2.87,23.18,23.18,0,0,1,42.64,1.6C55.74.5,65.05,11.33,66.15,24.44c1.33,15.87-5.54,30.32-13.47,35.29C62.13,57.2,73.28,40,71.75,21.83A23.82,23.82,0,0,0,46,.08Z"/><path class="cls-4" d="M29.22,17.56C32.3,8,39.18,4.87,44.6,4.93s2.51,3.16-1.46,4.51-8.76,7.06-8.6,16.12C34.71,35.55,26.14,27.11,29.22,17.56Z"/><path class="cls-1" d="M50.11,61.72c-.94-.12-1.36-.34-1.42-.73s.44-.7.61-.78l.11-.05.26,0a8.23,8.23,0,0,0,2.65,0h.19a.73.73,0,0,1,.59.76c0,.25-.19.86-1.49.89A12.13,12.13,0,0,1,50.11,61.72Z"/><path class="cls-1" d="M50,208c-2.47-12.26-9.55-23.34-15.79-33.1-1.85-2.89-3.59-5.62-5.19-8.3-11.34-19.12-7.17-31-7.13-31.16L20.69,135c-.18.51-4.44,12.55,7.23,32.22,1.61,2.7,3.36,5.44,5.21,8.33,6.29,9.83,13,20.37,15.55,31.88A2.39,2.39,0,0,1,50,208Z"/><path class="cls-5" d="M19.23,132s1.85.85.53,2-5.32,2-3.51,3.32,8.2,1.94,10,.05c.51-.68-1.4-1.39-2.93-2.28s-.54-2.43.48-2.81C24.17,132.14,19.23,132,19.23,132Z"/><path class="cls-6" d="M23.35,135.08c-1.54-.9-.54-2.43.48-2.81.34-.13-4.6-.32-4.6-.32s1.23.56,1,1.42c.42,1.67,5,2,2.69,4.22a5.31,5.31,0,0,1-3.11.83c2.47.33,5.37.11,6.5-1.06C26.79,136.68,24.88,136,23.35,135.08Z"/><path class="cls-5" d="M48,97.61c-1.29,19.36-16.59,35.62-26.42,35S-1.19,113.45.09,94.39A24,24,0,0,1,48,97.61Z"/><path class="cls-6" d="M25.67,72a23.86,23.86,0,0,0-9.73,1.36A23.8,23.8,0,0,1,22.05,73c13.24.89,20.89,13.11,20,26.35-1.07,16-10.12,29.4-18.78,33.15,9.81-1.08,23.54-16.61,24.76-34.91A24,24,0,0,0,25.67,72Z"/><path class="cls-7" d="M6.25,86.91c4.52-9.06,11.86-11.15,17.26-10.27s2,3.53-2.14,4.28-9.81,5.72-11,14.78C9,105.69,1.73,96,6.25,86.91Z"/><path class="cls-1" d="M21.92,134.1h0c-.62-.08-2.66-.39-2.72-1.12,0-.43.49-.58.67-.63l.09,0,.09,0a11.85,11.85,0,0,0,1.71.36,5.36,5.36,0,0,0,1.11,0H23a.63.63,0,0,1,.48.71A.71.71,0,0,1,23,134,2,2,0,0,1,21.92,134.1Zm-2-1.13a7,7,0,0,0,2.06.52l0,.3,0-.3c.6.07.81-.05.83-.1a0,0,0,0,0,0,0,5.17,5.17,0,0,1-1.15,0A10.34,10.34,0,0,1,20,133Z"/><path class="cls-1" d="M20.52,201.51l-1-.75c.14-.18,14.06-18.86,5.78-37.74-9.81-22.34,7.91-38.08,24.44-49.3A110.13,110.13,0,0,0,81.07,80.89l1.07.61a111.64,111.64,0,0,1-31.68,33.24c-24,16.27-31.38,31-24,47.79C35,182.07,20.67,201.32,20.52,201.51Z"/><path class="cls-8" d="M79,81.27s1.41,1.4-.2,2-5.53,0-4.34,1.83,6.84,4.56,9.15,3.46c.7-.46-.81-1.75-1.91-3.09s.34-2.39,1.4-2.4C83.42,83.12,79,81.27,79,81.27Z"/><path class="cls-9" d="M81.67,85.52c-1.1-1.34.34-2.39,1.4-2.4.35,0-4.1-1.85-4.1-1.85s.93.93.41,1.62c-.18,1.67,3.86,3.55,1,4.77a5.16,5.16,0,0,1-3.13-.29c2.14,1.14,4.87,1.92,6.3,1.24C84.28,88.15,82.77,86.86,81.67,85.52Z"/><path class="cls-8" d="M117,59.66c-7.76,17.25-27.26,26.93-36,23S66.6,57.43,74.23,40.44A23.43,23.43,0,0,1,117,59.66Z"/><path class="cls-9" d="M105.2,28.69a23.26,23.26,0,0,0-9.36-2.06,23.67,23.67,0,0,1,5.72,1.74c11.8,5.3,14.63,19.07,9.33,30.87-6.42,14.28-19.23,23.43-28.42,23.92C91.8,85.5,109.62,76,117,59.66A23.43,23.43,0,0,0,105.2,28.69Z"/><path class="cls-10" d="M82.4,35.7C89.61,29,97,29.54,101.66,32.17s.65,3.92-3.41,3.19-10.91,1.89-15.09,9.76C78.54,53.8,75.2,42.44,82.4,35.7Z"/><path class="cls-1" d="M81.59,84.87a2.46,2.46,0,0,1-.82-.29c-.72-.37-2.35-1.31-2.15-2,.09-.3.39-.44.9-.4h.11l.09.06a8.5,8.5,0,0,0,2.42,1.31.63.63,0,0,1,.4.75A.79.79,0,0,1,81.59,84.87Z"/><path class="cls-1" d="M94.37,139.5l-1-.66c-.1.17-10.36,16.59-5.07,36.82,2.57,9.87-.19,20.32-4.92,29.79a2.24,2.24,0,0,1,.73,1.25c5.06-9.89,8.1-20.91,5.38-31.35C84.3,155.65,94.27,139.66,94.37,139.5Z"/><path class="cls-11" d="M92.61,136s1.2,1.41-.35,1.89-5.16-.42-4.18,1.4,6,4.76,8.28,3.9c.69-.38-.62-1.7-1.55-3s.49-2.21,1.48-2.15C96.62,138.09,92.61,136,92.61,136Z"/><path class="cls-12" d="M94.81,140.21c-.93-1.33.49-2.21,1.48-2.15.33,0-3.68-2-3.68-2s.8.93.25,1.54c-.29,1.55,3.34,3.6.61,4.53a4.85,4.85,0,0,1-2.89-.5c1.91,1.22,4.4,2.15,5.78,1.62C97.05,142.85,95.74,141.53,94.81,140.21Z"/><path class="cls-11" d="M129.65,118.65c-8.51,15.54-27.42,23.14-35.32,18.82s-11.53-24.6-3.16-39.89a21.94,21.94,0,1,1,38.48,21.07Z"/><path class="cls-12" d="M121,88.87a21.87,21.87,0,0,0-8.59-2.61,22.13,22.13,0,0,1,5.21,2c10.63,5.82,12.27,18.88,6.45,29.5-7,12.87-19.67,20.47-28.29,20.25,8.54,2.87,25.88-4.72,33.92-19.41A22,22,0,0,0,121,88.87Z"/><path class="cls-13" d="M99.15,93.74c7.22-5.77,14.1-4.67,18.24-1.87s.32,3.7-3.42,2.72-10.32,1-14.81,8C94.22,110.36,91.93,99.51,99.15,93.74Z"/><path class="cls-1" d="M94.52,139.77a2.05,2.05,0,0,1-.83-.34c-.63-.39-2.07-1.37-1.84-2,.08-.25.34-.36.76-.3l.16,0,.06.06A8.28,8.28,0,0,0,95,138.63a.56.56,0,0,1,.3.66A.68.68,0,0,1,94.52,139.77ZM92.74,138a7.8,7.8,0,0,0,1.27,1c.42.26.61.26.67.25A7.69,7.69,0,0,1,92.74,138Z"/><path class="cls-1" d="M53.24,224.65a2.51,2.51,0,0,1,1.27-.52A83.46,83.46,0,0,0,52,195.27c-8.6-32.55-2.49-42.35-2.43-42.45l-1-.68c-.27.4-6.53,10.19,2.26,43.44A82.68,82.68,0,0,1,53.24,224.65Z"/><path class="cls-14" d="M48.27,148.87s1.6,1.26,0,2.11-5.64.65-4.2,2.39,7.52,3.83,9.73,2.43c.66-.55-1-1.69-2.31-2.92s.06-2.48,1.14-2.61A45.22,45.22,0,0,0,48.27,148.87Z"/><path class="cls-15" d="M51.53,152.88c-1.28-1.23.06-2.48,1.14-2.61a45.22,45.22,0,0,0-4.4-1.4s1.06.84.61,1.61c0,1.72,4.36,3.15,1.62,4.73a5.3,5.3,0,0,1-3.22.08c2.32.9,5.19,1.38,6.56.51C54.5,155.25,52.81,154.11,51.53,152.88Z"/><path class="cls-14" d="M84.37,122.3C78.53,140.81,59.84,153,50.44,150s-17.64-24-11.9-42.18A24,24,0,1,1,84.37,122.3Z"/><path class="cls-15" d="M68.67,92.16a24,24,0,0,0-9.78-1,24,24,0,0,1,6,1.08c12.66,4,17.2,17.67,13.22,30.33-4.83,15.32-16.78,26.18-26.08,27.78,9.79,1.26,26.79-10.58,32.31-28.08A24,24,0,0,0,68.67,92.16Z"/><path class="cls-16" d="M46.29,102c6.53-7.74,14.16-8,19.19-5.9s1.14,3.91-3.09,3.65S51.51,103,48.19,111.55C44.53,120.94,39.76,109.78,46.29,102Z"/><path class="cls-1" d="M51,152a3,3,0,0,1-.66-.18c-.59-.22-2.5-1-2.38-1.72.06-.43.62-.46.8-.46h.09l.08,0a8.83,8.83,0,0,0,2.65,1.05.57.57,0,0,1,.43.68C51.94,151.72,51.64,152.07,51,152Zm-2.32-1.74a7.18,7.18,0,0,0,1.88,1,2.73,2.73,0,0,0,.52.14c.21,0,.3,0,.32,0v0a9.29,9.29,0,0,1-2.7-1.06Z"/></g></g></svg>